<?xml version="1.0" encoding="UTF-8" standalone="no"?>
<!-- Created with Inkscape (http://www.inkscape.org/) -->

<svg
   version="1.1"
   id="svg1"
   width="5121.3335"
   height="2881.3333"
   viewBox="0 0 5121.3335 2881.3333"
   sodipodi:docname="wall.svg"
   inkscape:version="1.4 (e7c3feb100, 2024-10-09)"
   inkscape:export-filename="wall.png"
   inkscape:export-xdpi="35.990627"
   inkscape:export-ydpi="35.990627"
   xmlns:inkscape="http://www.inkscape.org/namespaces/inkscape"
   xmlns:sodipodi="http://sodipodi.sourceforge.net/DTD/sodipodi-0.dtd"
   xmlns="http://www.w3.org/2000/svg"
   xmlns:svg="http://www.w3.org/2000/svg">
  <defs
     id="defs1" />
  <sodipodi:namedview
     id="namedview1"
     pagecolor="#505050"
     bordercolor="#eeeeee"
     borderopacity="1"
     inkscape:showpageshadow="0"
     inkscape:pageopacity="0"
     inkscape:pagecheckerboard="0"
     inkscape:deskcolor="#505050"
     inkscape:zoom="0.2717492"
     inkscape:cx="2559.3451"
     inkscape:cy="1440.6666"
     inkscape:window-width="1920"
     inkscape:window-height="1050"
     inkscape:window-x="0"
     inkscape:window-y="30"
     inkscape:window-maximized="1"
     inkscape:current-layer="group-R5">
    <inkscape:page
       x="0"
       y="0"
       inkscape:label="1"
       id="page1"
       width="5121.3335"
       height="2881.3333"
       margin="0"
       bleed="0" />
  </sodipodi:namedview>
  <g
     id="g1"
     inkscape:groupmode="layer"
     inkscape:label="1">
    <g
       id="group-R5">
      <g
         id="g152"
         inkscape:label="layer1">
        <path
           id="path2"
           d="M 0.66666665,2880.6666 V 0.66670535 H 5120.6665 V 2880.6666 H 0.66666665"
           style="fill:#1c1c1c;fill-opacity:1;fill-rule:nonzero;stroke:none;stroke-width:0.133;stroke-dasharray:none"
           sodipodi:nodetypes="ccccc" />
      </g>
      <g
         id="g151"
         inkscape:label="layer2">
        <path
           id="path3"
           d="m 1807.68,126.88031 h 654.7333 v 829.9197 L 2077.1999,1342 v 300.56 l -995.1333,995.1466 v 242.96 H 0.66666665 v -662 L 769.93331,1449.4 V 1164.64 L 1807.68,126.88031 v 0"
           style="fill:#171717;fill-opacity:1;fill-rule:evenodd;stroke:none;stroke-width:0.133333" />
        <path
           id="path4"
           d="M 3512.0666,2880.6666 V 2050.76 l 385.2133,-385.2134 v -300.56 l 995.1333,-995.13329 v -242.973 h 228.2533 V 1926.7866 l -953.8799,953.88 h -654.72"
           style="fill:#171717;fill-opacity:1;fill-rule:evenodd;stroke:none;stroke-width:0.133333"
           sodipodi:nodetypes="cccccccccc" />
      </g>
      <g
         id="g150"
         inkscape:label="zone3">
        <path
           id="path5"
           d="m 4161.0666,2515.3733 -58.9694,58.9733 h 58.9694 z"
           style="fill:#222222;fill-opacity:1;fill-rule:nonzero;stroke:none;stroke-width:0.133333" />
        <path
           id="path6"
           d="m 3974.9092,2574.3466 h 59.188 l 126.9694,-126.9733 v -59.1867 l -186.1574,186.16"
           style="fill:#222222;fill-opacity:1;fill-rule:nonzero;stroke:none;stroke-width:0.133333" />
        <path
           id="path7"
           d="m 3847.7212,2574.3466 h 59.188 l 254.1574,-254.16 v -59.1867 l -313.3454,313.3467"
           style="fill:#222222;fill-opacity:1;fill-rule:nonzero;stroke:none;stroke-width:0.133333" />
        <path
           id="path8"
           d="m 4127.0666,2226.9866 h -59.1867 l -254.1587,254.16 v 59.1867 l 313.3454,-313.3467"
           style="fill:#222222;fill-opacity:1;fill-rule:nonzero;stroke:none;stroke-width:0.133333" />
        <path
           id="path9"
           d="m 3999.8786,2226.9866 h -59.1867 l -126.9707,126.9733 v 59.1867 l 186.1574,-186.16"
           style="fill:#222222;fill-opacity:1;fill-rule:nonzero;stroke:none;stroke-width:0.133333" />
        <path
           id="path10"
           d="m 3813.7212,2285.9599 58.9694,-58.9733 h -58.9694 z"
           style="fill:#222222;fill-opacity:1;fill-rule:nonzero;stroke:none;stroke-width:0.133333" />
      </g>
      <g
         id="g149"
         inkscape:label="zone2">
        <path
           id="path11"
           d="m 3352.1066,2014.2133 h 59.1866 l 55.28,-55.28 v -59.1867 l -114.4666,114.4667"
           style="fill:#383838;fill-opacity:1;fill-rule:nonzero;stroke:none;stroke-width:0.133333" />
        <path
           id="path12"
           d="m 3224.9199,2014.2133 h 59.1867 l 182.4666,-182.4667 V 1772.56 l -241.6533,241.6533"
           style="fill:#383838;fill-opacity:1;fill-rule:nonzero;stroke:none;stroke-width:0.133333" />
        <path
           id="path13"
           d="M 3156.9199,2014.2133 3466.5732,1704.56 v -49.8 h -9.3733 l -359.4666,359.4533 h 59.1866"
           style="fill:#383838;fill-opacity:1;fill-rule:nonzero;stroke:none;stroke-width:0.133333" />
        <path
           id="path14"
           d="m 2970.5466,2014.2133 h 59.1867 L 3389.1999,1654.76 h -59.1866 l -359.4667,359.4533"
           style="fill:#383838;fill-opacity:1;fill-rule:nonzero;stroke:none;stroke-width:0.133333" />
        <path
           id="path15"
           d="m 2843.3599,2014.2133 h 59.1867 L 3262.0133,1654.76 h -59.1867 l -359.4667,359.4533"
           style="fill:#383838;fill-opacity:1;fill-rule:nonzero;stroke:none;stroke-width:0.133333" />
        <path
           id="path16"
           d="m 2765.9733,1964.4133 v 49.8 h 9.3866 L 3134.8133,1654.76 h -59.1867 l -309.6533,309.6533"
           style="fill:#383838;fill-opacity:1;fill-rule:nonzero;stroke:none;stroke-width:0.133333" />
        <path
           id="path17"
           d="m 2765.9733,1837.2266 v 59.1867 L 3007.6266,1654.76 h -59.1867 l -182.4666,182.4666"
           style="fill:#383838;fill-opacity:1;fill-rule:nonzero;stroke:none;stroke-width:0.133333" />
        <path
           id="path18"
           d="m 2765.9733,1710.04 v 59.1866 L 2880.4399,1654.76 h -59.1866 l -55.28,55.28"
           style="fill:#383838;fill-opacity:1;fill-rule:nonzero;stroke:none;stroke-width:0.133333" />
      </g>
      <g
         id="g148"
         inkscape:label="zone1">
        <path
           id="path19"
           d="m 5026.5895,1654.76 h 9.391 l 84.686,-84.6934 v -9.3866 l -94.077,94.08"
           style="fill:#383838;fill-opacity:1;fill-rule:nonzero;stroke:none;stroke-width:0.133333" />
        <path
           id="path20"
           d="m 4884.3439,1654.76 h 9.3906 l 226.932,-226.9334 v -9.4 L 4884.3439,1654.76"
           style="fill:#383838;fill-opacity:1;fill-rule:nonzero;stroke:none;stroke-width:0.133333" />
        <path
           id="path21"
           d="m 4742.0972,1654.76 h 9.392 l 369.1773,-369.1867 v -9.3867 L 4742.0972,1654.76"
           style="fill:#383838;fill-opacity:1;fill-rule:nonzero;stroke:none;stroke-width:0.133333" />
        <path
           id="path22"
           d="m 4599.8519,1654.76 h 9.3907 l 511.4239,-511.4267 v -9.4 L 4599.8519,1654.76"
           style="fill:#383838;fill-opacity:1;fill-rule:nonzero;stroke:none;stroke-width:0.133333" />
        <path
           id="path23"
           d="m 4457.6066,1654.76 h 9.3893 l 653.6706,-653.68 v -9.38669 L 4457.6066,1654.76"
           style="fill:#383838;fill-opacity:1;fill-rule:nonzero;stroke:none;stroke-width:0.133333" />
        <path
           id="path24"
           d="m 4315.3599,1654.76 h 9.3907 l 795.9159,-795.91999 v -9.3867 L 4315.3599,1654.76"
           style="fill:#383838;fill-opacity:1;fill-rule:nonzero;stroke:none;stroke-width:0.133333" />
        <path
           id="path25"
           d="m 4173.1132,1654.76 h 9.392 l 938.1613,-938.17339 v -9.3866 L 4173.1132,1654.76"
           style="fill:#383838;fill-opacity:1;fill-rule:nonzero;stroke:none;stroke-width:0.133333" />
        <path
           id="path26"
           d="m 4030.8679,1654.76 h 9.3907 L 5120.6665,574.34671 v -9.3867 L 4030.8679,1654.76"
           style="fill:#383838;fill-opacity:1;fill-rule:nonzero;stroke:none;stroke-width:0.133333" />
        <path
           id="path27"
           d="m 3888.6212,1654.76 h 9.392 L 5120.6665,432.09331 v -9.3866 L 3888.6212,1654.76"
           style="fill:#383838;fill-opacity:1;fill-rule:nonzero;stroke:none;stroke-width:0.133333" />
        <path
           id="path28"
           d="m 3746.3732,1654.76 h 9.4 L 5120.6665,289.85331 v -9.3866 L 3746.3732,1654.76"
           style="fill:#383838;fill-opacity:1;fill-rule:nonzero;stroke:none;stroke-width:0.133333" />
        <path
           id="path29"
           d="m 3604.1332,1654.76 h 9.3867 L 5120.6665,147.61331 v -9.4 L 3604.1332,1654.76"
           style="fill:#383838;fill-opacity:1;fill-rule:nonzero;stroke:none;stroke-width:0.133333" />
        <path
           id="path30"
           d="m 3466.5732,1654.76 h 4.7067 L 5120.6665,5.3599054 V 0.66670535 h -4.6953 L 3466.5732,1650.0533 v 4.7067"
           style="fill:#383838;fill-opacity:1;fill-rule:nonzero;stroke:none;stroke-width:0.133333" />
        <path
           id="path31"
           d="M 3466.5732,1507.8133 V 1517.2 L 4983.1159,0.66670535 h -9.3907 L 3466.5732,1507.8133"
           style="fill:#383838;fill-opacity:1;fill-rule:nonzero;stroke:none;stroke-width:0.133333" />
        <path
           id="path32"
           d="m 3466.5732,1365.56 v 9.4 L 4840.8705,0.66670535 h -9.392 L 3466.5732,1365.56"
           style="fill:#383838;fill-opacity:1;fill-rule:nonzero;stroke:none;stroke-width:0.133333" />
        <path
           id="path33"
           d="m 3466.5732,1223.32 v 9.3866 L 4698.6239,0.66670535 h -9.3907 L 3466.5732,1223.32"
           style="fill:#383838;fill-opacity:1;fill-rule:nonzero;stroke:none;stroke-width:0.133333" />
        <path
           id="path34"
           d="m 3466.5732,1081.08 v 9.3866 L 4556.3786,0.66670535 h -9.392 L 3466.5732,1081.08"
           style="fill:#383838;fill-opacity:1;fill-rule:nonzero;stroke:none;stroke-width:0.133333" />
        <path
           id="path35"
           d="m 3466.5732,938.82661 v 9.3867 L 4414.1319,0.66670535 h -9.3907 L 3466.5732,938.82661"
           style="fill:#383838;fill-opacity:1;fill-rule:nonzero;stroke:none;stroke-width:0.133333" />
        <path
           id="path36"
           d="m 3466.5732,796.58661 v 9.3867 L 4271.8852,0.66670535 h -9.3893 L 3466.5732,796.58661"
           style="fill:#383838;fill-opacity:1;fill-rule:nonzero;stroke:none;stroke-width:0.133333" />
        <path
           id="path37"
           d="m 3466.5732,654.33331 v 9.4 L 4129.6399,0.66670535 h -9.3907 L 3466.5732,654.33331"
           style="fill:#383838;fill-opacity:1;fill-rule:nonzero;stroke:none;stroke-width:0.133333" />
        <path
           id="path38"
           d="m 3466.5732,512.09331 v 9.3867 L 3987.3946,0.66670535 h -9.392 L 3466.5732,512.09331"
           style="fill:#383838;fill-opacity:1;fill-rule:nonzero;stroke:none;stroke-width:0.133333" />
        <path
           id="path39"
           d="m 3466.5732,369.84001 v 9.4 L 3845.1479,0.66670535 h -9.3907 L 3466.5732,369.84001"
           style="fill:#383838;fill-opacity:1;fill-rule:nonzero;stroke:none;stroke-width:0.133333" />
        <path
           id="path40"
           d="m 3466.5732,227.60001 v 9.3867 L 3702.9066,0.66670535 h -9.4 L 3466.5732,227.60001"
           style="fill:#383838;fill-opacity:1;fill-rule:nonzero;stroke:none;stroke-width:0.133333" />
        <path
           id="path41"
           d="m 3466.5732,85.346905 v 9.4 l 94.08,-94.08019965 h -9.3866 L 3466.5732,85.346905"
           style="fill:#383838;fill-opacity:1;fill-rule:nonzero;stroke:none;stroke-width:0.133333" />
      </g>
      <g
         id="g147"
         inkscape:label="grid">
        <path
           id="path42"
           d="M 5120.6665,2880.6666 H 0.66666665 V 0.66670535 H 5120.6665 Z"
           style="fill:none;stroke:#383838;stroke-width:1.33333;stroke-linecap:butt;stroke-linejoin:miter;stroke-miterlimit:10;stroke-dasharray:none;stroke-opacity:1" />
        <path
           id="path43"
           d="M 5120.6665,240.66671 H 0.66666665"
           style="fill:none;stroke:#383838;stroke-width:1.33333;stroke-linecap:butt;stroke-linejoin:miter;stroke-miterlimit:10;stroke-dasharray:none;stroke-opacity:1" />
        <path
           id="path44"
           d="M 5120.6665,480.66671 H 0.66666665"
           style="fill:none;stroke:#383838;stroke-width:1.33333;stroke-linecap:butt;stroke-linejoin:miter;stroke-miterlimit:10;stroke-dasharray:none;stroke-opacity:1" />
        <path
           id="path45"
           d="M 5120.6665,720.66661 H 0.66666665"
           style="fill:none;stroke:#383838;stroke-width:1.33333;stroke-linecap:butt;stroke-linejoin:miter;stroke-miterlimit:10;stroke-dasharray:none;stroke-opacity:1" />
        <path
           id="path46"
           d="M 5120.6665,960.66661 H 0.66666665"
           style="fill:none;stroke:#383838;stroke-width:1.33333;stroke-linecap:butt;stroke-linejoin:miter;stroke-miterlimit:10;stroke-dasharray:none;stroke-opacity:1" />
        <path
           id="path47"
           d="M 5120.6665,1200.6666 H 0.66666665"
           style="fill:none;stroke:#383838;stroke-width:1.33333;stroke-linecap:butt;stroke-linejoin:miter;stroke-miterlimit:10;stroke-dasharray:none;stroke-opacity:1" />
        <path
           id="path48"
           d="M 5120.6665,1440.6666 H 0.66666665"
           style="fill:none;stroke:#383838;stroke-width:1.33333;stroke-linecap:butt;stroke-linejoin:miter;stroke-miterlimit:10;stroke-dasharray:none;stroke-opacity:1" />
        <path
           id="path49"
           d="M 5120.6665,1680.6666 H 0.66666665"
           style="fill:none;stroke:#383838;stroke-width:1.33333;stroke-linecap:butt;stroke-linejoin:miter;stroke-miterlimit:10;stroke-dasharray:none;stroke-opacity:1" />
        <path
           id="path50"
           d="M 5120.6665,1920.6666 H 0.66666665"
           style="fill:none;stroke:#383838;stroke-width:1.33333;stroke-linecap:butt;stroke-linejoin:miter;stroke-miterlimit:10;stroke-dasharray:none;stroke-opacity:1" />
        <path
           id="path51"
           d="M 5120.6665,2160.6666 H 0.66666665"
           style="fill:none;stroke:#383838;stroke-width:1.33333;stroke-linecap:butt;stroke-linejoin:miter;stroke-miterlimit:10;stroke-dasharray:none;stroke-opacity:1" />
        <path
           id="path52"
           d="M 5120.6665,2400.6666 H 0.66666665"
           style="fill:none;stroke:#383838;stroke-width:1.33333;stroke-linecap:butt;stroke-linejoin:miter;stroke-miterlimit:10;stroke-dasharray:none;stroke-opacity:1" />
        <path
           id="path53"
           d="M 5120.6665,2640.6666 H 0.66666665"
           style="fill:none;stroke:#383838;stroke-width:1.33333;stroke-linecap:butt;stroke-linejoin:miter;stroke-miterlimit:10;stroke-dasharray:none;stroke-opacity:1" />
        <path
           id="path54"
           d="M 285.10666,2880.6666 V 0.66670535"
           style="fill:none;stroke:#383838;stroke-width:1.33333;stroke-linecap:butt;stroke-linejoin:miter;stroke-miterlimit:10;stroke-dasharray:none;stroke-opacity:1" />
        <path
           id="path55"
           d="M 569.55999,2880.6666 V 0.66670535"
           style="fill:none;stroke:#383838;stroke-width:1.33333;stroke-linecap:butt;stroke-linejoin:miter;stroke-miterlimit:10;stroke-dasharray:none;stroke-opacity:1" />
        <path
           id="path56"
           d="M 853.99998,2880.6666 V 0.66670535"
           style="fill:none;stroke:#383838;stroke-width:1.33333;stroke-linecap:butt;stroke-linejoin:miter;stroke-miterlimit:10;stroke-dasharray:none;stroke-opacity:1" />
        <path
           id="path57"
           d="M 1138.44,2880.6666 V 0.66670535"
           style="fill:none;stroke:#383838;stroke-width:1.33333;stroke-linecap:butt;stroke-linejoin:miter;stroke-miterlimit:10;stroke-dasharray:none;stroke-opacity:1" />
        <path
           id="path58"
           d="M 1422.8933,2880.6666 V 0.66670535"
           style="fill:none;stroke:#383838;stroke-width:1.33333;stroke-linecap:butt;stroke-linejoin:miter;stroke-miterlimit:10;stroke-dasharray:none;stroke-opacity:1" />
        <path
           id="path59"
           d="M 1707.3333,2880.6666 V 0.66670535"
           style="fill:none;stroke:#383838;stroke-width:1.33333;stroke-linecap:butt;stroke-linejoin:miter;stroke-miterlimit:10;stroke-dasharray:none;stroke-opacity:1" />
        <path
           id="path60"
           d="M 1991.7733,2880.6666 V 0.66670535"
           style="fill:none;stroke:#383838;stroke-width:1.33333;stroke-linecap:butt;stroke-linejoin:miter;stroke-miterlimit:10;stroke-dasharray:none;stroke-opacity:1" />
        <path
           id="path61"
           d="M 2276.2266,2880.6666 V 0.66670535"
           style="fill:none;stroke:#383838;stroke-width:1.33333;stroke-linecap:butt;stroke-linejoin:miter;stroke-miterlimit:10;stroke-dasharray:none;stroke-opacity:1" />
        <path
           id="path62"
           d="M 2560.6666,2880.6666 V 0.66670535"
           style="fill:none;stroke:#383838;stroke-width:1.33333;stroke-linecap:butt;stroke-linejoin:miter;stroke-miterlimit:10;stroke-dasharray:none;stroke-opacity:1" />
        <path
           id="path63"
           d="M 2845.1066,2880.6666 V 0.66670535"
           style="fill:none;stroke:#383838;stroke-width:1.33333;stroke-linecap:butt;stroke-linejoin:miter;stroke-miterlimit:10;stroke-dasharray:none;stroke-opacity:1" />
        <path
           id="path64"
           d="M 3129.5599,2880.6666 V 0.66670535"
           style="fill:none;stroke:#383838;stroke-width:1.33333;stroke-linecap:butt;stroke-linejoin:miter;stroke-miterlimit:10;stroke-dasharray:none;stroke-opacity:1" />
        <path
           id="path65"
           d="M 3413.9999,2880.6666 V 0.66670535"
           style="fill:none;stroke:#383838;stroke-width:1.33333;stroke-linecap:butt;stroke-linejoin:miter;stroke-miterlimit:10;stroke-dasharray:none;stroke-opacity:1" />
        <path
           id="path66"
           d="M 3698.4399,2880.6666 V 0.66670535"
           style="fill:none;stroke:#383838;stroke-width:1.33333;stroke-linecap:butt;stroke-linejoin:miter;stroke-miterlimit:10;stroke-dasharray:none;stroke-opacity:1" />
        <path
           id="path67"
           d="M 3982.8892,2880.6666 V 0.66670535"
           style="fill:none;stroke:#383838;stroke-width:1.33333;stroke-linecap:butt;stroke-linejoin:miter;stroke-miterlimit:10;stroke-dasharray:none;stroke-opacity:1" />
        <path
           id="path68"
           d="M 4267.3332,2880.6666 V 0.66670535"
           style="fill:none;stroke:#383838;stroke-width:1.33333;stroke-linecap:butt;stroke-linejoin:miter;stroke-miterlimit:10;stroke-dasharray:none;stroke-opacity:1" />
        <path
           id="path69"
           d="M 4551.7772,2880.6666 V 0.66670535"
           style="fill:none;stroke:#383838;stroke-width:1.33333;stroke-linecap:butt;stroke-linejoin:miter;stroke-miterlimit:10;stroke-dasharray:none;stroke-opacity:1" />
        <path
           id="path70"
           d="M 4836.2225,2880.6666 V 0.66670535"
           style="fill:none;stroke:#383838;stroke-width:1.33333;stroke-linecap:butt;stroke-linejoin:miter;stroke-miterlimit:10;stroke-dasharray:none;stroke-opacity:1" />
      </g>
      <g
         id="g146"
         inkscape:label="square1">
        <path
           id="path71"
           d="m 688.27998,2230.0133 58.56,58.56 v -58.56 z"
           style="fill:#5e5e5e;fill-opacity:1;fill-rule:nonzero;stroke:none;stroke-width:0.133333" />
        <path
           id="path72"
           d="m 746.83998,2414.8666 v -58.7733 l -126.08,-126.08 h -58.77333 l 184.85333,184.8533"
           style="fill:#5e5e5e;fill-opacity:1;fill-rule:nonzero;stroke:none;stroke-width:0.133333" />
        <path
           id="path73"
           d="m 746.83998,2541.1599 v -58.7733 L 494.46665,2230.0133 h -58.77333 l 311.14666,311.1466"
           style="fill:#5e5e5e;fill-opacity:1;fill-rule:nonzero;stroke:none;stroke-width:0.133333" />
        <path
           id="path74"
           d="m 401.93332,2263.7733 v 58.7733 l 252.37333,252.3733 h 58.77333 L 401.93332,2263.7733"
           style="fill:#5e5e5e;fill-opacity:1;fill-rule:nonzero;stroke:none;stroke-width:0.133333" />
        <path
           id="path75"
           d="m 401.93332,2390.0666 v 58.7733 l 126.08,126.08 h 58.77333 L 401.93332,2390.0666"
           style="fill:#5e5e5e;fill-opacity:1;fill-rule:nonzero;stroke:none;stroke-width:0.133333" />
        <path
           id="path76"
           d="m 460.49332,2574.9199 -58.56,-58.56 v 58.56 z"
           style="fill:#5e5e5e;fill-opacity:1;fill-rule:nonzero;stroke:none;stroke-width:0.133333" />
      </g>
      <g
         id="g145"
         inkscape:label="plus"
         transform="translate(0,80)">
        <path
           id="path77"
           d="m 442.39999,694.30661 h 62.52 v -61.1466 h 65.74666 v 61.1466 h 61.6 v 65.7467 h -61.6 v 62.9733 h -65.74666 v -62.9733 h -62.52 z"
           style="fill:none;stroke:#383838;stroke-width:11.7059;stroke-linecap:butt;stroke-linejoin:miter;stroke-miterlimit:10;stroke-dasharray:none;stroke-opacity:1" />
      </g>
      <g
         id="g144"
         inkscape:label="layer3">
        <path
           id="path81"
           d="M 0.66666665,1603.3333 V 2880.6666 H 2980.3466 l -264.0667,-264.0533 h -54.88 l 48.8267,48.8266 h -24.2 l -48.8267,-48.8266 h -43.6933 l 48.8267,48.8266 h -24.2 l -48.8267,-48.8266 h -43.6933 l 48.8133,48.8266 h -24.1867 l -48.8266,-48.8266 h -43.6934 l 48.8134,48.8266 h -24.2 l -48.8134,-48.8266 h -43.6933 l 48.8133,48.8266 h -24.2 l -48.8133,-48.8266 h -43.7067 l 48.8267,48.8266 h -24.2 l -48.8133,-48.8266 h -43.7067 l 48.8267,48.8266 h -24.2 l -48.8267,-48.8266 h -43.6933 l 48.8266,48.8266 h -24.2 l -48.8266,-48.8266 h -43.6934 l 48.8267,48.8266 h -24.2 l -48.8267,-48.8266 h -414.5733 l -122.6133,122.6 H 360.78666 L 149.28,2527.7199 V 2103.5733 L 210.85333,2042 V 620.00001 L 371.71999,459.14671 H 1003.72 l 94.8533,-74.8667 H 1806 L 2246,824.28 H 5120.6665 V 0.66670535 H 4900.4799 L 4599.1466,302.00001 H 2772.8533 L 2471.5199,0.66670535 H 0.66666665 V 725.24001 L 36.279998,760.85331 V 1687.72 l -35.61333135,35.6133"
           style="fill:#383838;fill-opacity:1;fill-rule:nonzero;stroke:none;stroke-width:0.133333"
           sodipodi:nodetypes="ccccccccccccccccccccccccccccccccccccccccccccccccccccccccccccccc" />
      </g>
      <g
         id="g143"
         inkscape:label="warning"
         transform="matrix(0.98538824,0,0,0.98523724,72.81748,180.96038)">
        <path
           id="path82"
           d="m 617.46665,173.48001 h 59.18667 l 34,-34 V 80.293205 l -93.18667,93.186805"
           style="fill:#222222;fill-opacity:1;fill-rule:nonzero;stroke:none;stroke-width:0.133333" />
        <path
           id="path83"
           d="m 490.27999,173.48001 h 59.18666 L 657.89332,65.053605 H 598.70665 L 490.27999,173.48001"
           style="fill:#222222;fill-opacity:1;fill-rule:nonzero;stroke:none;stroke-width:0.133333" />
        <path
           id="path84"
           d="m 363.09332,173.48001 h 59.18667 L 530.70665,65.053605 h -59.2 L 363.09332,173.48001"
           style="fill:#222222;fill-opacity:1;fill-rule:nonzero;stroke:none;stroke-width:0.133333" />
        <path
           id="path85"
           d="m 235.90666,173.48001 h 59.18667 L 403.50666,65.053605 H 344.31999 L 235.90666,173.48001"
           style="fill:#222222;fill-opacity:1;fill-rule:nonzero;stroke:none;stroke-width:0.133333" />
        <path
           id="path86"
           d="M 276.31999,65.053605 H 217.13333 L 108.72,173.48001 h 59.18666 L 276.31999,65.053605"
           style="fill:#222222;fill-opacity:1;fill-rule:nonzero;stroke:none;stroke-width:0.133333" />
        <path
           id="path87"
           d="M 149.13333,65.053605 H 89.946664 l -33.999999,34 V 158.24001 L 149.13333,65.053605"
           style="fill:#222222;fill-opacity:1;fill-rule:nonzero;stroke:none;stroke-width:0.133333" />
      </g>
      <g
         id="g142"
         inkscape:label="fingers"
         transform="translate(140,180)">
        <path
           id="path88"
           d="m 3053.0533,134.42671 -89.1467,-89.133505 h -270.8533 l 92.5733,92.573505 v 425.1333 l 212.5733,212.5733 h 68.5734 l 137.1333,137.1467 h 442.2933 l -593.1466,-593.1467 v -185.1466"
           style="fill:#5e5e5e;fill-opacity:1;fill-rule:nonzero;stroke:none;stroke-width:0.133333" />
        <path
           id="path89"
           d="M 3180.2266,45.293205 V 336.90671 l 220.48,220.48 h 43.52 l 354.2413,354.2399 h 300.62 v -68.6266 L 3301.3733,45.293205 h -121.1467"
           style="fill:#5e5e5e;fill-opacity:1;fill-rule:nonzero;stroke:none;stroke-width:0.133333" />
        <path
           id="path90"
           d="m 4297.1826,608.14671 -423.428,-423.4267 V 45.293205 H 3532.0399 V 168.14671 l 411.428,411.4266 h 40.572 l 266.8573,266.8533 v 65.2 h 295.7134 v -103.76 l -199.7134,-199.7199 h -49.7146"
           style="fill:#5e5e5e;fill-opacity:1;fill-rule:nonzero;stroke:none;stroke-width:0.133333" />
        <path
           id="path91"
           d="m 4801.1825,350.24001 -88.6666,88.6667 -393.6187,-393.613505 h -306.2866 l 129.7146,129.706805 v 150.2933 l 590.7547,590.7467 h 103.1426 v -353.4267 -212.3733 h -35.04"
           style="fill:#5e5e5e;fill-opacity:1;fill-rule:nonzero;stroke:none;stroke-width:0.133333" />
      </g>
      <g
         id="g141"
         inkscape:label="barcode">
        <path
           id="path92"
           d="m 4960.1305,2682.9599 h 14.5254 v 51.44 h -14.5254 v -51.44"
           style="fill:#5e5e5e;fill-opacity:1;fill-rule:nonzero;stroke:none;stroke-width:0.133333" />
        <path
           id="path93"
           d="m 4908.9439,2682.9599 h 38.736 v 51.44 h -38.736 v -51.44"
           style="fill:#5e5e5e;fill-opacity:1;fill-rule:nonzero;stroke:none;stroke-width:0.133333" />
        <path
           id="path94"
           d="m 4284.3372,2682.9599 h 14.5254 v 51.44 h -14.5254 v -51.44"
           style="fill:#5e5e5e;fill-opacity:1;fill-rule:nonzero;stroke:none;stroke-width:0.133333" />
        <path
           id="path95"
           d="m 4233.1506,2682.9599 h 38.736 v 51.44 h -38.736 v -51.44"
           style="fill:#5e5e5e;fill-opacity:1;fill-rule:nonzero;stroke:none;stroke-width:0.133333" />
        <path
           id="path96"
           d="m 4098.9599,2682.9599 h 60.8707 v 51.44 h -60.8707 v -51.44"
           style="fill:#5e5e5e;fill-opacity:1;fill-rule:nonzero;stroke:none;stroke-width:0.133333" />
        <path
           id="path97"
           d="m 4034.6319,2682.9599 h 40.1187 v 51.44 h -40.1187 v -51.44"
           style="fill:#5e5e5e;fill-opacity:1;fill-rule:nonzero;stroke:none;stroke-width:0.133333" />
        <path
           id="path98"
           d="m 4573.2386,2682.9599 h 38.7346 v 51.44 h -38.7346 v -51.44"
           style="fill:#5e5e5e;fill-opacity:1;fill-rule:nonzero;stroke:none;stroke-width:0.133333" />
        <path
           id="path99"
           d="m 4446.6559,2682.9599 h 78.624 v 51.44 h -78.624 v -51.44"
           style="fill:#5e5e5e;fill-opacity:1;fill-rule:nonzero;stroke:none;stroke-width:0.133333" />
        <path
           id="path100"
           d="m 4739.1319,2682.9599 h 3.804 v 51.44 h -3.804 v -51.44"
           style="fill:#5e5e5e;fill-opacity:1;fill-rule:nonzero;stroke:none;stroke-width:0.133333" />
        <path
           id="path101"
           d="m 4557.2132,2682.9599 h 3.8054 v 51.44 h -3.8054 v -51.44"
           style="fill:#5e5e5e;fill-opacity:1;fill-rule:nonzero;stroke:none;stroke-width:0.133333" />
        <path
           id="path102"
           d="m 4537.4999,2682.9599 h 7.4933 v 51.44 h -7.4933 v -51.44"
           style="fill:#5e5e5e;fill-opacity:1;fill-rule:nonzero;stroke:none;stroke-width:0.133333" />
        <path
           id="path103"
           d="m 4720.1092,2682.9599 h 10.0307 v 51.44 h -10.0307 v -51.44"
           style="fill:#5e5e5e;fill-opacity:1;fill-rule:nonzero;stroke:none;stroke-width:0.133333" />
        <path
           id="path104"
           d="m 4685.5239,2682.9599 h 20.06 v 51.44 h -20.06 v -51.44"
           style="fill:#5e5e5e;fill-opacity:1;fill-rule:nonzero;stroke:none;stroke-width:0.133333" />
        <path
           id="path105"
           d="m 4404.3466,2682.9599 h 3.8053 v 51.44 h -3.8053 v -51.44"
           style="fill:#5e5e5e;fill-opacity:1;fill-rule:nonzero;stroke:none;stroke-width:0.133333" />
        <path
           id="path106"
           d="m 4385.3252,2682.9599 h 10.0294 v 51.44 h -10.0294 v -51.44"
           style="fill:#5e5e5e;fill-opacity:1;fill-rule:nonzero;stroke:none;stroke-width:0.133333" />
        <path
           id="path107"
           d="m 4350.7399,2682.9599 h 20.06 v 51.44 h -20.06 v -51.44"
           style="fill:#5e5e5e;fill-opacity:1;fill-rule:nonzero;stroke:none;stroke-width:0.133333" />
        <path
           id="path108"
           d="m 4774.7545,2682.9599 h 102.372 v 51.44 h -102.372 v -51.44"
           style="fill:#5e5e5e;fill-opacity:1;fill-rule:nonzero;stroke:none;stroke-width:0.133333" />
      </g>
      <g
         id="g140"
         inkscape:label="slider"
         transform="matrix(1,0,0,0.54245383,-16,1140.188)">
        <path
           id="path109"
           d="m 4919.9892,2432.8631 v 21.3235 h 54.6667 v -21.3235 h -21.7134 V 1750.301 h 21.7134 v -21.3235 h -21.7134 -3.3333 v -594.868 h -4.572 v 594.868 h -3.3333 -21.7147 v 21.3235 h 21.7147 v 682.5621 h -21.7147"
           style="fill:#5e5e5e;fill-opacity:1;fill-rule:nonzero;stroke:none;stroke-width:0.121435" />
      </g>
      <g
         id="g139"
         inkscape:label="cross8">
        <path
           id="path110"
           d="m 3125.4266,2403.9999 h 37.2533 v 4 h -33.2533 v 27.28 h -4 v -31.28"
           style="fill:#38383f;fill-opacity:1;fill-rule:nonzero;stroke:none;stroke-width:0.133333" />
      </g>
      <g
         id="g138"
         inkscape:label="cross7">
        <path
           id="path111"
           d="m 1949.72,2403.9999 h 37.2533 v 31.28 h -4 v -27.28 H 1949.72 v -4"
           style="fill:#38383f;fill-opacity:1;fill-rule:nonzero;stroke:none;stroke-width:0.133333" />
        <path
           id="path112"
           d="m 1996.5866,2403.9999 h 37.2533 v 4 h -33.2533 v 27.28 h -4 v -31.28"
           style="fill:#38383f;fill-opacity:1;fill-rule:nonzero;stroke:none;stroke-width:0.133333" />
      </g>
      <g
         id="g137"
         inkscape:label="cross6">
        <path
           id="path113"
           d="m 817.62665,2403.9999 h 37.25333 v 31.28 h -4 v -27.28 h -33.25333 v -4"
           style="fill:#38383f;fill-opacity:1;fill-rule:nonzero;stroke:none;stroke-width:0.133333" />
        <path
           id="path114"
           d="m 850.87998,2363.6666 h 4 v 31.28 h -37.25333 v -4 h 33.25333 v -27.28"
           style="fill:#38383f;fill-opacity:1;fill-rule:nonzero;stroke:none;stroke-width:0.133333" />
      </g>
      <g
         id="g136"
         inkscape:label="cross5">
        <path
           id="path115"
           d="m 3125.4266,1676.1733 h 4 v 27.28 h 33.2533 v 4 h -37.2533 v -31.28"
           style="fill:#38383f;fill-opacity:1;fill-rule:nonzero;stroke:none;stroke-width:0.133333" />
        <path
           id="path116"
           d="m 3125.4266,1716.52 h 37.2533 v 4 h -33.2533 v 27.28 h -4 v -31.28"
           style="fill:#38383f;fill-opacity:1;fill-rule:nonzero;stroke:none;stroke-width:0.133333" />
      </g>
      <g
         id="g135"
         inkscape:label="cross4">
        <path
           id="path117"
           d="m 1982.9733,1676.1733 h 4 v 31.28 H 1949.72 v -4 h 33.2533 v -27.28"
           style="fill:#38383f;fill-opacity:1;fill-rule:nonzero;stroke:none;stroke-width:0.133333" />
        <path
           id="path118"
           d="m 1996.5866,1676.1733 h 4 v 27.28 h 33.2533 v 4 h -37.2533 v -31.28"
           style="fill:#38383f;fill-opacity:1;fill-rule:nonzero;stroke:none;stroke-width:0.133333" />
      </g>
      <g
         id="g134"
         inkscape:label="cross3">
        <path
           id="path119"
           d="m 817.62665,1716.52 h 37.25333 v 31.28 h -4 v -27.28 h -33.25333 v -4"
           style="fill:#38383f;fill-opacity:1;fill-rule:nonzero;stroke:none;stroke-width:0.133333" />
        <path
           id="path120"
           d="m 850.87998,1676.1733 h 4 v 31.28 h -37.25333 v -4 h 33.25333 v -27.28"
           style="fill:#38383f;fill-opacity:1;fill-rule:nonzero;stroke:none;stroke-width:0.133333"
           inkscape:label="path120" />
      </g>
      <g
         id="g133"
         inkscape:label="cross2">
        <path
           id="path121"
           d="m 3111.8133,988.69331 h 4 v 31.27999 h -37.2534 v -4 h 33.2534 v -27.27999"
           style="fill:#38383f;fill-opacity:1;fill-rule:nonzero;stroke:none;stroke-width:0.133333" />
        <path
           id="path122"
           d="m 3125.4266,988.69331 h 4 v 27.27999 h 33.2533 v 4 h -37.2533 v -31.27999"
           style="fill:#38383f;fill-opacity:1;fill-rule:nonzero;stroke:none;stroke-width:0.133333" />
        <path
           id="path123"
           d="m 3125.4266,1029.04 h 37.2533 v 4 h -33.2533 v 27.2666 h -4 V 1029.04"
           style="fill:#38383f;fill-opacity:1;fill-rule:nonzero;stroke:none;stroke-width:0.133333" />
      </g>
      <g
         id="g132"
         inkscape:label="cross1">
        <path
           id="path124"
           d="m 817.62665,1029.04 h 37.25333 v 31.2666 h -4 V 1033.04 h -33.25333 v -4"
           style="fill:#38383f;fill-opacity:1;fill-rule:nonzero;stroke:none;stroke-width:0.133333" />
        <path
           id="path125"
           d="m 850.87998,988.69331 h 4 v 31.27999 h -37.25333 v -4 h 33.25333 v -27.27999"
           style="fill:#38383f;fill-opacity:1;fill-rule:nonzero;stroke:none;stroke-width:0.133333" />
        <path
           id="path126"
           d="m 864.49331,988.69331 h 4 v 27.27999 h 33.25333 v 4 h -37.25333 v -31.27999"
           style="fill:#38383f;fill-opacity:1;fill-rule:nonzero;stroke:none;stroke-width:0.133333" />
      </g>
    </g>
  </g>
</svg>
